<svg xmlns="http://www.w3.org/2000/svg" width="85" height="21" viewBox="0 0 85.05 20.8" fill="#fff"><path d="M13-20.05a13.772,13.772,0,0,0-6.55,2.1A10.384,10.384,0,0,0,1.6-9.3,12.346,12.346,0,0,0,3.15-3.45a8.933,8.933,0,0,0,7.4,4,10.028,10.028,0,0,0,7.2-3.1A2.054,2.054,0,0,0,18.4-4c0-.25-.4-.4-.95,0A7.33,7.33,0,0,1,13-2.5,7.285,7.285,0,0,1,6.7-5.85a9.354,9.354,0,0,1-1.3-5A8.56,8.56,0,0,1,7.5-16.6a4.87,4.87,0,0,1,3.1-1.7c1.7,0,2.55.75,4.2,1.95a5.427,5.427,0,0,0,1.95.95c.2,0,1.65-1.2,1.65-2a2.257,2.257,0,0,0-.75-1.5A9.027,9.027,0,0,0,13-20.05Zm19.3-.15a11.2,11.2,0,0,0-7.4,2.75,9.646,9.646,0,0,0-3.5,7.8A11.06,11.06,0,0,0,25.1-2,10.871,10.871,0,0,0,31.75.6a9.979,9.979,0,0,0,6.2-2A10.759,10.759,0,0,0,42.3-10,10.032,10.032,0,0,0,32.3-20.2Zm-.95,1.5a6.3,6.3,0,0,1,4.2,1.95,11.543,11.543,0,0,1,2.5,7.65A11.5,11.5,0,0,1,35.8-2.5,4.58,4.58,0,0,1,32.75-.85c-2.4,0-5.25-1.8-6.5-5.55a14.976,14.976,0,0,1-.6-4.45,9.379,9.379,0,0,1,2.45-6.4A5.262,5.262,0,0,1,31.35-18.7Zm26-1.35a13.772,13.772,0,0,0-6.55,2.1A10.384,10.384,0,0,0,45.95-9.3,12.346,12.346,0,0,0,47.5-3.45a8.933,8.933,0,0,0,7.4,4,10.028,10.028,0,0,0,7.2-3.1A2.054,2.054,0,0,0,62.75-4c0-.25-.4-.4-.95,0a7.33,7.33,0,0,1-4.45,1.5,7.285,7.285,0,0,1-6.3-3.35,9.354,9.354,0,0,1-1.3-5,8.56,8.56,0,0,1,2.1-5.75,4.87,4.87,0,0,1,3.1-1.7c1.7,0,2.55.75,4.2,1.95a5.427,5.427,0,0,0,1.95.95c.2,0,1.65-1.2,1.65-2A2.257,2.257,0,0,0,62-18.9,9.027,9.027,0,0,0,57.35-20.05Zm19.3-.15a11.2,11.2,0,0,0-7.4,2.75,9.646,9.646,0,0,0-3.5,7.8A11.06,11.06,0,0,0,69.45-2,10.871,10.871,0,0,0,76.1.6a9.979,9.979,0,0,0,6.2-2A10.759,10.759,0,0,0,86.65-10,10.032,10.032,0,0,0,76.65-20.2Zm-.95,1.5a6.3,6.3,0,0,1,4.2,1.95A11.543,11.543,0,0,1,82.4-9.1a11.5,11.5,0,0,1-2.25,6.6A4.58,4.58,0,0,1,77.1-.85c-2.4,0-5.25-1.8-6.5-5.55a14.976,14.976,0,0,1-.6-4.45,9.379,9.379,0,0,1,2.45-6.4A5.262,5.262,0,0,1,75.7-18.7Z" transform="translate(-1.6 20.2)" /></svg>